<svg xmlns="http://www.w3.org/2000/svg" viewBox="0 0 1443.11 1080"><defs><style>.cls-1{fill:#fff;}</style></defs><g id="Layer_2" data-name="Layer 2"><path class="cls-1" d="M619.74,874.84C606.52,887.77,595.12,894,576.35,894c-31.29,0-52.85-21.84-52.85-52.57,0-31.57,24.48-52.29,53.13-52.29a57.45,57.45,0,0,1,43.52,20L606.8,822c-9-9.6-18.91-14.6-30.59-14.6-18.78,0-34.07,14.46-34.07,34.07,0,20.58,14.74,34.35,34.49,34.35,12.37,0,20.72-5,30.17-14.46Z"/><path class="cls-1" d="M678.29,883.74c-6.54,6.39-13.49,9.73-22.81,9.73-18.77,0-35.18-16.13-35.18-38.8,0-23.08,15.57-38.94,34.76-38.94,8.9,0,16.55,3.34,23.23,10v-8.06h18.49v73.84H678.29Zm-39.36-29.21c0,12.66,8.35,22,19.89,22s20.3-8.62,20.3-22.11c0-12.93-8.62-21.69-20.3-21.69C646.58,832.7,638.93,842.43,638.93,854.53Z"/><path class="cls-1" d="M722.93,827c3.48-7.65,9.46-11.27,15.58-11.27a17.3,17.3,0,0,1,8.06,1.95l-5.7,15.85a13.08,13.08,0,0,0-5.42-1.53c-5.29,0-9.46,6.12-9.88,17-.13,4-.13,8.62-.13,12.65v29.9h-18.5V817.68h16Z"/><path class="cls-1" d="M749.77,789.17h18.5V891.52h-18.5Z"/><path class="cls-1" d="M853.38,854.53c0,21.42-16.55,38.94-39.08,38.94-21.42,0-38.38-17.1-38.38-38.8a38.64,38.64,0,0,1,38.24-38.94C835.72,815.73,853.38,832.7,853.38,854.53Zm-58.83,0c0,12.52,7.93,21.42,19.89,21.42,11.4,0,20.3-8.35,20.3-21.28,0-12.52-8.2-21.42-20.3-21.42C802.9,833.25,794.55,842.29,794.55,854.53Z"/><path class="cls-1" d="M873.41,859.54c-11.82-6-17.8-13.21-17.8-22.53,0-11.54,9.73-21.28,23.92-21.28A30,30,0,0,1,903.87,828l-11.41,11.54c-4.17-4.17-8.34-6.81-12.79-6.81-3.76,0-6.68,1.53-6.68,4.45s2.64,4,6.68,6.12l6.81,3.47c12.24,6.26,18.78,12.66,18.78,23.65,0,13.21-10.43,23.08-26.57,23.08-10.7,0-19.47-4.31-25.86-12.65l11.4-12.52c4.31,5,10.57,8.62,15.44,8.62,4.59,0,8.2-2.64,8.2-6s-3.06-5.56-8.2-8.2Z"/><path class="cls-1" d="M934.32,791.67h23.23c12.93,0,22,2,28.23,8.07,4.87,4.73,8.06,12.38,8.06,20.86,0,10.57-4.31,18.5-12.65,23.64s-17.38,5-27.81,5v42.27H934.32Zm19.06,39.08h8.9c8.62,0,12.93-3.34,12.93-10.15s-4.73-10.29-13.77-10.29h-8.06Z"/><path class="cls-1" d="M1049.61,883.74c-6.53,6.39-13.49,9.73-22.8,9.73-18.78,0-35.19-16.13-35.19-38.8,0-23.08,15.58-38.94,34.77-38.94,8.9,0,16.55,3.34,23.22,10v-8.06h18.5v73.84h-18.5Zm-39.35-29.21c0,12.66,8.34,22,19.88,22s20.31-8.62,20.31-22.11c0-12.93-8.62-21.69-20.31-21.69C1017.91,832.7,1010.26,842.43,1010.26,854.53Z"/><path class="cls-1" d="M1095.51,825.19c7.09-6,13.63-9.46,21.83-9.46,13.77,0,25.31,9.46,25.31,25.31v50.48h-18.49v-34.9c0-14.6-1.25-23.92-12.52-23.92a14.5,14.5,0,0,0-12.51,7.09c-3.76,6-3.62,12.66-3.62,20.3v31.43H1077V817.68h18.5Z"/><path class="cls-1" d="M1227.07,854.53c0,21.42-16.55,38.94-39.08,38.94-21.41,0-38.38-17.1-38.38-38.8a38.64,38.64,0,0,1,38.24-38.94C1209.41,815.73,1227.07,832.7,1227.07,854.53Zm-58.83,0c0,12.52,7.93,21.42,19.89,21.42,11.41,0,20.31-8.35,20.31-21.28,0-12.52-8.21-21.42-20.31-21.42C1176.59,833.25,1168.24,842.29,1168.24,854.53Z"/><path class="cls-1" d="M606.32,311.32h0c-3.85-.2-7.74-.29-11.62-.29a228.36,228.36,0,0,0-66.8,9.91h0A118.83,118.83,0,1,0,377.83,466.22h0a228.19,228.19,0,0,0-12.2,73.87v4.18h0A197.34,197.34,0,1,1,606.32,311.32Z"/><path class="cls-1" d="M776.49,463.27a197.21,197.21,0,0,0-166-119.88q-7.83-.61-15.75-.62a196.49,196.49,0,0,0-62.14,10q-7.42,2.48-14.68,5.54a197.88,197.88,0,0,0-105,105c-1.16,2.73-2.24,5.49-3.27,8.26a196.22,196.22,0,0,0-12.25,68.56v350H427a48.85,48.85,0,0,0,48.85-48.85V697.64A197.37,197.37,0,0,0,776.49,463.27ZM678.72,624.12a118.82,118.82,0,1,1,34.81-84A118,118,0,0,1,678.72,624.12Z"/></g></svg>