<svg xmlns="http://www.w3.org/2000/svg" viewBox="0 0 1080.83 1080"><defs><style>.cls-1{fill:#0b132b;}</style></defs><g id="Layer_2" data-name="Layer 2"><path class="cls-1" d="M642.7,328.53c-3.85-.19-7.74-.29-11.62-.29a228.36,228.36,0,0,0-66.8,9.91q-105.9,30.54-150.06,145.28a226.89,226.89,0,0,0-9.14,36.34A231,231,0,0,0,402,557.31v4.17a197.37,197.37,0,1,1,240.68-233Z"/><path class="cls-1" d="M828.4,557.31A197.3,197.3,0,0,1,512.25,714.86V858.5a48.85,48.85,0,0,1-48.85,48.85H433.76v-350A196,196,0,0,1,446,488.75c1-2.77,2.11-5.53,3.27-8.26a197.85,197.85,0,0,1,105-105q7.25-3.08,14.68-5.53a196.48,196.48,0,0,1,62.13-10q7.93,0,15.76.62A197.18,197.18,0,0,1,828.4,557.31Z"/></g></svg>