<svg xmlns="http://www.w3.org/2000/svg" viewBox="0 0 1080.83 1080"><g id="Layer_2" data-name="Layer 2"><path d="M642.7,328.53h0c-3.84-.2-7.73-.29-11.61-.29a228.37,228.37,0,0,0-66.81,9.91h0A118.83,118.83,0,1,0,414.22,483.43h0A227.92,227.92,0,0,0,402,557.3v4.18h0a197.37,197.37,0,1,1,240.68-233Z"/><path d="M812.88,480.49a197.23,197.23,0,0,0-166-119.89Q639,360,631.09,360A196.22,196.22,0,0,0,569,370q-7.43,2.46-14.68,5.53a197.85,197.85,0,0,0-105,105c-1.16,2.73-2.25,5.49-3.27,8.26a196.12,196.12,0,0,0-12.25,68.55v350H463.4a48.85,48.85,0,0,0,48.85-48.85V714.85A197.38,197.38,0,0,0,812.88,480.49ZM715.11,641.33a118.82,118.82,0,1,1,34.81-84A118.07,118.07,0,0,1,715.11,641.33Z"/></g></svg>