<svg xmlns="http://www.w3.org/2000/svg" viewBox="0 0 1080.83 1080"><defs><style>.cls-1{fill:#53f3d7;}</style></defs><g id="Layer_2" data-name="Layer 2"><path class="cls-1" d="M642.7,328.53h0c-3.84-.2-7.73-.29-11.61-.29a228.37,228.37,0,0,0-66.81,9.91h0A118.83,118.83,0,1,0,414.22,483.43h0A227.92,227.92,0,0,0,402,557.3v4.18h0a197.37,197.37,0,1,1,240.68-233Z"/><path class="cls-1" d="M828.41,557.31A197.31,197.31,0,0,1,512.25,714.86V858.5a48.85,48.85,0,0,1-48.85,48.85H433.77v-350A196.18,196.18,0,0,1,446,488.75c1-2.77,2.11-5.53,3.27-8.26a197.85,197.85,0,0,1,105-105q7.25-3.08,14.68-5.53a196.49,196.49,0,0,1,62.14-10q7.92,0,15.75.62a197.21,197.21,0,0,1,181.57,196.7Z"/></g></svg>